<mxfile host="app.diagrams.net" modified="2024-06-10T15:09:52.120Z" agent="Mozilla/5.0 (Windows NT 10.0; Win64; x64) AppleWebKit/537.36 (KHTML, like Gecko) Chrome/125.0.0.0 Safari/537.36 Edg/125.0.0.0" etag="nKVmBGb9EIPFNdDm9lx7" version="24.5.2" type="github">
  <diagram name="Page-1" id="edf60f1a-56cd-e834-aa8a-f176f3a09ee4">
    <mxGraphModel dx="1898" dy="554" grid="1" gridSize="10" guides="1" tooltips="1" connect="1" arrows="1" fold="1" page="1" pageScale="1" pageWidth="1100" pageHeight="850" background="none" math="0" shadow="0">
      <root>
        <mxCell id="0" />
        <mxCell id="1" parent="0" />
        <mxCell id="ypMZO8tSSEuYIi13xaaG-118" value="" style="rounded=0;whiteSpace=wrap;html=1;fillColor=none;" vertex="1" parent="1">
          <mxGeometry x="180" y="1065.93" width="160" height="78" as="geometry" />
        </mxCell>
        <mxCell id="ypMZO8tSSEuYIi13xaaG-123" value="" style="rounded=0;whiteSpace=wrap;html=1;fillColor=none;" vertex="1" parent="1">
          <mxGeometry x="180" y="1216.96" width="160" height="78" as="geometry" />
        </mxCell>
        <mxCell id="ypMZO8tSSEuYIi13xaaG-112" value="" style="rounded=0;whiteSpace=wrap;html=1;fillColor=none;" vertex="1" parent="1">
          <mxGeometry x="-15" y="1076.97" width="170" height="209" as="geometry" />
        </mxCell>
        <mxCell id="ypMZO8tSSEuYIi13xaaG-101" value="" style="rounded=0;whiteSpace=wrap;html=1;fillColor=none;" vertex="1" parent="1">
          <mxGeometry x="-380" y="1040.97" width="340" height="279" as="geometry" />
        </mxCell>
        <mxCell id="ypMZO8tSSEuYIi13xaaG-83" value="" style="rounded=0;whiteSpace=wrap;html=1;fillColor=none;" vertex="1" parent="1">
          <mxGeometry x="-200" y="460" width="360" height="520" as="geometry" />
        </mxCell>
        <mxCell id="ypMZO8tSSEuYIi13xaaG-80" value="" style="rounded=0;whiteSpace=wrap;html=1;fillColor=none;" vertex="1" parent="1">
          <mxGeometry x="-380" y="380" width="180" height="600" as="geometry" />
        </mxCell>
        <mxCell id="ypMZO8tSSEuYIi13xaaG-23" value="" style="edgeStyle=orthogonalEdgeStyle;rounded=0;orthogonalLoop=1;jettySize=auto;html=1;" edge="1" parent="1" source="ypMZO8tSSEuYIi13xaaG-7" target="ypMZO8tSSEuYIi13xaaG-15">
          <mxGeometry relative="1" as="geometry" />
        </mxCell>
        <mxCell id="ypMZO8tSSEuYIi13xaaG-7" value="&lt;font style=&quot;font-size: 18px;&quot;&gt;Even Downsample&lt;/font&gt;" style="whiteSpace=wrap;html=1;rounded=0;shadow=1;labelBackgroundColor=none;strokeWidth=1;fontFamily=Verdana;fontSize=8;align=center;spacing=6;" vertex="1" parent="1">
          <mxGeometry x="-360" y="600" width="140" height="40" as="geometry" />
        </mxCell>
        <mxCell id="ypMZO8tSSEuYIi13xaaG-95" value="" style="edgeStyle=orthogonalEdgeStyle;rounded=0;orthogonalLoop=1;jettySize=auto;html=1;" edge="1" parent="1" source="ypMZO8tSSEuYIi13xaaG-8" target="ypMZO8tSSEuYIi13xaaG-92">
          <mxGeometry relative="1" as="geometry">
            <Array as="points">
              <mxPoint x="-120" y="1220.97" />
            </Array>
          </mxGeometry>
        </mxCell>
        <mxCell id="ypMZO8tSSEuYIi13xaaG-8" value="&lt;font style=&quot;font-size: 18px;&quot;&gt;&amp;nbsp;Asymmetric Residual×n&lt;/font&gt;" style="whiteSpace=wrap;html=1;rounded=0;shadow=1;labelBackgroundColor=none;strokeWidth=1;fontFamily=Verdana;fontSize=8;align=center;spacing=6;" vertex="1" parent="1">
          <mxGeometry x="-190" y="1139.97" width="140" height="40" as="geometry" />
        </mxCell>
        <mxCell id="ypMZO8tSSEuYIi13xaaG-50" value="" style="edgeStyle=orthogonalEdgeStyle;rounded=0;orthogonalLoop=1;jettySize=auto;html=1;" edge="1" parent="1" source="ypMZO8tSSEuYIi13xaaG-10" target="ypMZO8tSSEuYIi13xaaG-13">
          <mxGeometry relative="1" as="geometry" />
        </mxCell>
        <mxCell id="ypMZO8tSSEuYIi13xaaG-10" value="&lt;span style=&quot;font-size: 18px;&quot;&gt;One Stem&lt;/span&gt;" style="whiteSpace=wrap;html=1;rounded=0;shadow=1;labelBackgroundColor=none;strokeWidth=1;fontFamily=Verdana;fontSize=8;align=center;spacing=6;" vertex="1" parent="1">
          <mxGeometry x="-360" y="400" width="140" height="40" as="geometry" />
        </mxCell>
        <mxCell id="ypMZO8tSSEuYIi13xaaG-63" value="" style="edgeStyle=orthogonalEdgeStyle;rounded=0;orthogonalLoop=1;jettySize=auto;html=1;" edge="1" parent="1" source="ypMZO8tSSEuYIi13xaaG-12" target="ypMZO8tSSEuYIi13xaaG-56">
          <mxGeometry relative="1" as="geometry" />
        </mxCell>
        <mxCell id="ypMZO8tSSEuYIi13xaaG-12" value="&lt;span style=&quot;font-size: 18px;&quot;&gt;Concat&lt;/span&gt;" style="whiteSpace=wrap;html=1;rounded=0;shadow=1;labelBackgroundColor=none;strokeWidth=1;fontFamily=Verdana;fontSize=8;align=center;spacing=6;" vertex="1" parent="1">
          <mxGeometry x="-180" y="480" width="140" height="40" as="geometry" />
        </mxCell>
        <mxCell id="ypMZO8tSSEuYIi13xaaG-22" value="" style="edgeStyle=orthogonalEdgeStyle;rounded=0;orthogonalLoop=1;jettySize=auto;html=1;entryX=0.5;entryY=0;entryDx=0;entryDy=0;" edge="1" parent="1" source="ypMZO8tSSEuYIi13xaaG-13" target="ypMZO8tSSEuYIi13xaaG-7">
          <mxGeometry relative="1" as="geometry">
            <mxPoint x="-310" y="620" as="targetPoint" />
          </mxGeometry>
        </mxCell>
        <mxCell id="ypMZO8tSSEuYIi13xaaG-54" value="" style="edgeStyle=orthogonalEdgeStyle;rounded=0;orthogonalLoop=1;jettySize=auto;html=1;" edge="1" parent="1" source="ypMZO8tSSEuYIi13xaaG-13" target="ypMZO8tSSEuYIi13xaaG-12">
          <mxGeometry relative="1" as="geometry" />
        </mxCell>
        <mxCell id="ypMZO8tSSEuYIi13xaaG-13" value="&lt;span style=&quot;font-size: 18px;&quot;&gt;Cspd&lt;/span&gt;" style="whiteSpace=wrap;html=1;rounded=0;shadow=1;labelBackgroundColor=none;strokeWidth=1;fontFamily=Verdana;fontSize=8;align=center;spacing=6;" vertex="1" parent="1">
          <mxGeometry x="-360" y="480" width="140" height="40" as="geometry" />
        </mxCell>
        <mxCell id="ypMZO8tSSEuYIi13xaaG-25" value="" style="edgeStyle=orthogonalEdgeStyle;rounded=0;orthogonalLoop=1;jettySize=auto;html=1;" edge="1" parent="1" source="ypMZO8tSSEuYIi13xaaG-15" target="ypMZO8tSSEuYIi13xaaG-24">
          <mxGeometry relative="1" as="geometry" />
        </mxCell>
        <mxCell id="ypMZO8tSSEuYIi13xaaG-46" value="" style="edgeStyle=orthogonalEdgeStyle;rounded=0;orthogonalLoop=1;jettySize=auto;html=1;" edge="1" parent="1" source="ypMZO8tSSEuYIi13xaaG-15" target="ypMZO8tSSEuYIi13xaaG-44">
          <mxGeometry relative="1" as="geometry" />
        </mxCell>
        <mxCell id="ypMZO8tSSEuYIi13xaaG-15" value="&lt;span style=&quot;font-size: 18px;&quot;&gt;Cspd&lt;/span&gt;" style="whiteSpace=wrap;html=1;rounded=0;shadow=1;labelBackgroundColor=none;strokeWidth=1;fontFamily=Verdana;fontSize=8;align=center;spacing=6;" vertex="1" parent="1">
          <mxGeometry x="-360" y="720" width="140" height="40" as="geometry" />
        </mxCell>
        <mxCell id="ypMZO8tSSEuYIi13xaaG-27" value="" style="edgeStyle=orthogonalEdgeStyle;rounded=0;orthogonalLoop=1;jettySize=auto;html=1;" edge="1" parent="1" source="ypMZO8tSSEuYIi13xaaG-24" target="ypMZO8tSSEuYIi13xaaG-26">
          <mxGeometry relative="1" as="geometry" />
        </mxCell>
        <mxCell id="ypMZO8tSSEuYIi13xaaG-24" value="&lt;font style=&quot;font-size: 18px;&quot;&gt;Even Downsample&lt;/font&gt;" style="whiteSpace=wrap;html=1;rounded=0;shadow=1;labelBackgroundColor=none;strokeWidth=1;fontFamily=Verdana;fontSize=8;align=center;spacing=6;" vertex="1" parent="1">
          <mxGeometry x="-360" y="820" width="140" height="40" as="geometry" />
        </mxCell>
        <mxCell id="ypMZO8tSSEuYIi13xaaG-29" value="" style="edgeStyle=orthogonalEdgeStyle;rounded=0;orthogonalLoop=1;jettySize=auto;html=1;" edge="1" parent="1" source="ypMZO8tSSEuYIi13xaaG-26" target="ypMZO8tSSEuYIi13xaaG-28">
          <mxGeometry relative="1" as="geometry" />
        </mxCell>
        <mxCell id="ypMZO8tSSEuYIi13xaaG-26" value="&lt;font style=&quot;font-size: 18px;&quot;&gt;SPP&lt;/font&gt;" style="whiteSpace=wrap;html=1;rounded=0;shadow=1;labelBackgroundColor=none;strokeWidth=1;fontFamily=Verdana;fontSize=8;align=center;spacing=6;" vertex="1" parent="1">
          <mxGeometry x="-360" y="920" width="140" height="40" as="geometry" />
        </mxCell>
        <mxCell id="ypMZO8tSSEuYIi13xaaG-37" value="" style="edgeStyle=orthogonalEdgeStyle;rounded=0;orthogonalLoop=1;jettySize=auto;html=1;" edge="1" parent="1" source="ypMZO8tSSEuYIi13xaaG-28" target="ypMZO8tSSEuYIi13xaaG-32">
          <mxGeometry relative="1" as="geometry" />
        </mxCell>
        <mxCell id="ypMZO8tSSEuYIi13xaaG-28" value="&lt;span style=&quot;font-size: 18px;&quot;&gt;Cspd&lt;/span&gt;" style="whiteSpace=wrap;html=1;rounded=0;shadow=1;labelBackgroundColor=none;strokeWidth=1;fontFamily=Verdana;fontSize=8;align=center;spacing=6;" vertex="1" parent="1">
          <mxGeometry x="-180" y="920" width="140" height="40" as="geometry" />
        </mxCell>
        <mxCell id="ypMZO8tSSEuYIi13xaaG-43" value="" style="edgeStyle=orthogonalEdgeStyle;rounded=0;orthogonalLoop=1;jettySize=auto;html=1;" edge="1" parent="1" source="ypMZO8tSSEuYIi13xaaG-32" target="ypMZO8tSSEuYIi13xaaG-35">
          <mxGeometry relative="1" as="geometry" />
        </mxCell>
        <mxCell id="ypMZO8tSSEuYIi13xaaG-72" value="" style="edgeStyle=orthogonalEdgeStyle;rounded=0;orthogonalLoop=1;jettySize=auto;html=1;" edge="1" parent="1" source="ypMZO8tSSEuYIi13xaaG-32" target="ypMZO8tSSEuYIi13xaaG-61">
          <mxGeometry relative="1" as="geometry" />
        </mxCell>
        <mxCell id="ypMZO8tSSEuYIi13xaaG-32" value="&lt;font style=&quot;font-size: 18px;&quot;&gt;Conv1×1&lt;/font&gt;" style="whiteSpace=wrap;html=1;rounded=0;shadow=1;labelBackgroundColor=none;strokeWidth=1;fontFamily=Verdana;fontSize=8;align=center;spacing=6;" vertex="1" parent="1">
          <mxGeometry x="-180" y="840" width="140" height="40" as="geometry" />
        </mxCell>
        <mxCell id="ypMZO8tSSEuYIi13xaaG-49" value="" style="edgeStyle=orthogonalEdgeStyle;rounded=0;orthogonalLoop=1;jettySize=auto;html=1;" edge="1" parent="1" source="ypMZO8tSSEuYIi13xaaG-34" target="ypMZO8tSSEuYIi13xaaG-48">
          <mxGeometry relative="1" as="geometry" />
        </mxCell>
        <mxCell id="ypMZO8tSSEuYIi13xaaG-34" value="&lt;span style=&quot;font-size: 18px;&quot;&gt;Cspd&lt;/span&gt;" style="whiteSpace=wrap;html=1;rounded=0;shadow=1;labelBackgroundColor=none;strokeWidth=1;fontFamily=Verdana;fontSize=8;align=center;spacing=6;" vertex="1" parent="1">
          <mxGeometry x="-180" y="660" width="140" height="40" as="geometry" />
        </mxCell>
        <mxCell id="ypMZO8tSSEuYIi13xaaG-45" value="" style="edgeStyle=orthogonalEdgeStyle;rounded=0;orthogonalLoop=1;jettySize=auto;html=1;" edge="1" parent="1" source="ypMZO8tSSEuYIi13xaaG-35" target="ypMZO8tSSEuYIi13xaaG-44">
          <mxGeometry relative="1" as="geometry" />
        </mxCell>
        <mxCell id="ypMZO8tSSEuYIi13xaaG-35" value="&lt;span style=&quot;font-size: 18px;&quot;&gt;Upsample&lt;/span&gt;" style="whiteSpace=wrap;html=1;rounded=0;shadow=1;labelBackgroundColor=none;strokeWidth=1;fontFamily=Verdana;fontSize=8;align=center;spacing=6;" vertex="1" parent="1">
          <mxGeometry x="-180" y="780" width="140" height="40" as="geometry" />
        </mxCell>
        <mxCell id="ypMZO8tSSEuYIi13xaaG-47" value="" style="edgeStyle=orthogonalEdgeStyle;rounded=0;orthogonalLoop=1;jettySize=auto;html=1;" edge="1" parent="1" source="ypMZO8tSSEuYIi13xaaG-44" target="ypMZO8tSSEuYIi13xaaG-34">
          <mxGeometry relative="1" as="geometry" />
        </mxCell>
        <mxCell id="ypMZO8tSSEuYIi13xaaG-44" value="&lt;span style=&quot;font-size: 18px;&quot;&gt;Concat&lt;/span&gt;" style="whiteSpace=wrap;html=1;rounded=0;shadow=1;labelBackgroundColor=none;strokeWidth=1;fontFamily=Verdana;fontSize=8;align=center;spacing=6;" vertex="1" parent="1">
          <mxGeometry x="-180" y="720" width="140" height="40" as="geometry" />
        </mxCell>
        <mxCell id="ypMZO8tSSEuYIi13xaaG-52" value="" style="edgeStyle=orthogonalEdgeStyle;rounded=0;orthogonalLoop=1;jettySize=auto;html=1;" edge="1" parent="1" source="ypMZO8tSSEuYIi13xaaG-48" target="ypMZO8tSSEuYIi13xaaG-51">
          <mxGeometry relative="1" as="geometry" />
        </mxCell>
        <mxCell id="ypMZO8tSSEuYIi13xaaG-48" value="&lt;font style=&quot;font-size: 18px;&quot;&gt;Conv1×1&lt;/font&gt;" style="whiteSpace=wrap;html=1;rounded=0;shadow=1;labelBackgroundColor=none;strokeWidth=1;fontFamily=Verdana;fontSize=8;align=center;spacing=6;" vertex="1" parent="1">
          <mxGeometry x="-180" y="600" width="140" height="40" as="geometry" />
        </mxCell>
        <mxCell id="ypMZO8tSSEuYIi13xaaG-55" value="" style="edgeStyle=orthogonalEdgeStyle;rounded=0;orthogonalLoop=1;jettySize=auto;html=1;" edge="1" parent="1" source="ypMZO8tSSEuYIi13xaaG-51" target="ypMZO8tSSEuYIi13xaaG-12">
          <mxGeometry relative="1" as="geometry" />
        </mxCell>
        <mxCell id="ypMZO8tSSEuYIi13xaaG-51" value="&lt;span style=&quot;font-size: 18px;&quot;&gt;Upsample&lt;/span&gt;" style="whiteSpace=wrap;html=1;rounded=0;shadow=1;labelBackgroundColor=none;strokeWidth=1;fontFamily=Verdana;fontSize=8;align=center;spacing=6;" vertex="1" parent="1">
          <mxGeometry x="-180" y="540" width="140" height="40" as="geometry" />
        </mxCell>
        <mxCell id="ypMZO8tSSEuYIi13xaaG-65" value="" style="edgeStyle=orthogonalEdgeStyle;rounded=0;orthogonalLoop=1;jettySize=auto;html=1;" edge="1" parent="1" source="ypMZO8tSSEuYIi13xaaG-56" target="ypMZO8tSSEuYIi13xaaG-57">
          <mxGeometry relative="1" as="geometry" />
        </mxCell>
        <mxCell id="ypMZO8tSSEuYIi13xaaG-74" value="" style="edgeStyle=orthogonalEdgeStyle;rounded=0;orthogonalLoop=1;jettySize=auto;html=1;" edge="1" parent="1" source="ypMZO8tSSEuYIi13xaaG-56" target="ypMZO8tSSEuYIi13xaaG-73">
          <mxGeometry relative="1" as="geometry" />
        </mxCell>
        <mxCell id="ypMZO8tSSEuYIi13xaaG-56" value="&lt;span style=&quot;font-size: 18px;&quot;&gt;Cspd&lt;/span&gt;" style="whiteSpace=wrap;html=1;rounded=0;shadow=1;labelBackgroundColor=none;strokeWidth=1;fontFamily=Verdana;fontSize=8;align=center;spacing=6;" vertex="1" parent="1">
          <mxGeometry y="480" width="140" height="40" as="geometry" />
        </mxCell>
        <mxCell id="ypMZO8tSSEuYIi13xaaG-67" value="" style="edgeStyle=orthogonalEdgeStyle;rounded=0;orthogonalLoop=1;jettySize=auto;html=1;" edge="1" parent="1" source="ypMZO8tSSEuYIi13xaaG-57" target="ypMZO8tSSEuYIi13xaaG-58">
          <mxGeometry relative="1" as="geometry" />
        </mxCell>
        <mxCell id="ypMZO8tSSEuYIi13xaaG-57" value="&lt;font style=&quot;font-size: 18px;&quot;&gt;Even Downsample&lt;/font&gt;" style="whiteSpace=wrap;html=1;rounded=0;shadow=1;labelBackgroundColor=none;strokeWidth=1;fontFamily=Verdana;fontSize=8;align=center;spacing=6;" vertex="1" parent="1">
          <mxGeometry y="540" width="140" height="40" as="geometry" />
        </mxCell>
        <mxCell id="ypMZO8tSSEuYIi13xaaG-68" value="" style="edgeStyle=orthogonalEdgeStyle;rounded=0;orthogonalLoop=1;jettySize=auto;html=1;" edge="1" parent="1" source="ypMZO8tSSEuYIi13xaaG-58" target="ypMZO8tSSEuYIi13xaaG-59">
          <mxGeometry relative="1" as="geometry" />
        </mxCell>
        <mxCell id="ypMZO8tSSEuYIi13xaaG-58" value="&lt;span style=&quot;font-size: 18px;&quot;&gt;Concat&lt;/span&gt;" style="whiteSpace=wrap;html=1;rounded=0;shadow=1;labelBackgroundColor=none;strokeWidth=1;fontFamily=Verdana;fontSize=8;align=center;spacing=6;" vertex="1" parent="1">
          <mxGeometry y="600" width="140" height="40" as="geometry" />
        </mxCell>
        <mxCell id="ypMZO8tSSEuYIi13xaaG-69" value="" style="edgeStyle=orthogonalEdgeStyle;rounded=0;orthogonalLoop=1;jettySize=auto;html=1;" edge="1" parent="1" source="ypMZO8tSSEuYIi13xaaG-59" target="ypMZO8tSSEuYIi13xaaG-60">
          <mxGeometry relative="1" as="geometry" />
        </mxCell>
        <mxCell id="ypMZO8tSSEuYIi13xaaG-76" value="" style="edgeStyle=orthogonalEdgeStyle;rounded=0;orthogonalLoop=1;jettySize=auto;html=1;" edge="1" parent="1" source="ypMZO8tSSEuYIi13xaaG-59" target="ypMZO8tSSEuYIi13xaaG-75">
          <mxGeometry relative="1" as="geometry" />
        </mxCell>
        <mxCell id="ypMZO8tSSEuYIi13xaaG-59" value="&lt;span style=&quot;font-size: 18px;&quot;&gt;Cspd&lt;/span&gt;" style="whiteSpace=wrap;html=1;rounded=0;shadow=1;labelBackgroundColor=none;strokeWidth=1;fontFamily=Verdana;fontSize=8;align=center;spacing=6;" vertex="1" parent="1">
          <mxGeometry y="720" width="140" height="40" as="geometry" />
        </mxCell>
        <mxCell id="ypMZO8tSSEuYIi13xaaG-70" value="" style="edgeStyle=orthogonalEdgeStyle;rounded=0;orthogonalLoop=1;jettySize=auto;html=1;" edge="1" parent="1" source="ypMZO8tSSEuYIi13xaaG-60" target="ypMZO8tSSEuYIi13xaaG-61">
          <mxGeometry relative="1" as="geometry" />
        </mxCell>
        <mxCell id="ypMZO8tSSEuYIi13xaaG-60" value="&lt;font style=&quot;font-size: 18px;&quot;&gt;Even Downsample&lt;/font&gt;" style="whiteSpace=wrap;html=1;rounded=0;shadow=1;labelBackgroundColor=none;strokeWidth=1;fontFamily=Verdana;fontSize=8;align=center;spacing=6;" vertex="1" parent="1">
          <mxGeometry y="780" width="140" height="40" as="geometry" />
        </mxCell>
        <mxCell id="ypMZO8tSSEuYIi13xaaG-71" value="" style="edgeStyle=orthogonalEdgeStyle;rounded=0;orthogonalLoop=1;jettySize=auto;html=1;" edge="1" parent="1" source="ypMZO8tSSEuYIi13xaaG-61" target="ypMZO8tSSEuYIi13xaaG-62">
          <mxGeometry relative="1" as="geometry" />
        </mxCell>
        <mxCell id="ypMZO8tSSEuYIi13xaaG-61" value="&lt;span style=&quot;font-size: 18px;&quot;&gt;Concat&lt;/span&gt;" style="whiteSpace=wrap;html=1;rounded=0;shadow=1;labelBackgroundColor=none;strokeWidth=1;fontFamily=Verdana;fontSize=8;align=center;spacing=6;" vertex="1" parent="1">
          <mxGeometry y="840" width="140" height="40" as="geometry" />
        </mxCell>
        <mxCell id="ypMZO8tSSEuYIi13xaaG-79" value="" style="edgeStyle=orthogonalEdgeStyle;rounded=0;orthogonalLoop=1;jettySize=auto;html=1;" edge="1" parent="1" source="ypMZO8tSSEuYIi13xaaG-62" target="ypMZO8tSSEuYIi13xaaG-77">
          <mxGeometry relative="1" as="geometry" />
        </mxCell>
        <mxCell id="ypMZO8tSSEuYIi13xaaG-62" value="&lt;span style=&quot;font-size: 18px;&quot;&gt;Cspd&lt;/span&gt;" style="whiteSpace=wrap;html=1;rounded=0;shadow=1;labelBackgroundColor=none;strokeWidth=1;fontFamily=Verdana;fontSize=8;align=center;spacing=6;" vertex="1" parent="1">
          <mxGeometry y="920" width="140" height="40" as="geometry" />
        </mxCell>
        <mxCell id="ypMZO8tSSEuYIi13xaaG-73" value="&lt;font style=&quot;font-size: 18px;&quot;&gt;Conv1×1&lt;/font&gt;" style="whiteSpace=wrap;html=1;rounded=0;shadow=1;labelBackgroundColor=none;strokeWidth=1;fontFamily=Verdana;fontSize=8;align=center;spacing=6;" vertex="1" parent="1">
          <mxGeometry x="180" y="480" width="140" height="40" as="geometry" />
        </mxCell>
        <mxCell id="ypMZO8tSSEuYIi13xaaG-75" value="&lt;font style=&quot;font-size: 18px;&quot;&gt;Conv1×1&lt;/font&gt;" style="whiteSpace=wrap;html=1;rounded=0;shadow=1;labelBackgroundColor=none;strokeWidth=1;fontFamily=Verdana;fontSize=8;align=center;spacing=6;" vertex="1" parent="1">
          <mxGeometry x="180" y="720" width="140" height="40" as="geometry" />
        </mxCell>
        <mxCell id="ypMZO8tSSEuYIi13xaaG-77" value="&lt;font style=&quot;font-size: 18px;&quot;&gt;Conv1×1&lt;/font&gt;" style="whiteSpace=wrap;html=1;rounded=0;shadow=1;labelBackgroundColor=none;strokeWidth=1;fontFamily=Verdana;fontSize=8;align=center;spacing=6;" vertex="1" parent="1">
          <mxGeometry x="180" y="920" width="140" height="40" as="geometry" />
        </mxCell>
        <mxCell id="ypMZO8tSSEuYIi13xaaG-81" value="&lt;span style=&quot;font-family: Verdana; font-size: 18px;&quot;&gt;BackBone&lt;/span&gt;" style="rounded=0;whiteSpace=wrap;html=1;strokeColor=none;" vertex="1" parent="1">
          <mxGeometry x="-350" y="316" width="120" height="60" as="geometry" />
        </mxCell>
        <mxCell id="ypMZO8tSSEuYIi13xaaG-82" value="&lt;span style=&quot;font-family: Verdana; font-size: 18px;&quot;&gt;Neck&lt;/span&gt;" style="rounded=0;whiteSpace=wrap;html=1;strokeColor=none;" vertex="1" parent="1">
          <mxGeometry x="-80" y="396" width="120" height="60" as="geometry" />
        </mxCell>
        <mxCell id="ypMZO8tSSEuYIi13xaaG-84" value="" style="rounded=0;whiteSpace=wrap;html=1;fillColor=none;" vertex="1" parent="1">
          <mxGeometry x="160" y="460" width="180" height="520" as="geometry" />
        </mxCell>
        <mxCell id="ypMZO8tSSEuYIi13xaaG-85" value="&lt;span style=&quot;font-family: Verdana; font-size: 18px;&quot;&gt;Head&lt;/span&gt;" style="rounded=0;whiteSpace=wrap;html=1;strokeColor=none;" vertex="1" parent="1">
          <mxGeometry x="188" y="395" width="120" height="60" as="geometry" />
        </mxCell>
        <mxCell id="ypMZO8tSSEuYIi13xaaG-94" value="" style="edgeStyle=orthogonalEdgeStyle;rounded=0;orthogonalLoop=1;jettySize=auto;html=1;" edge="1" parent="1" source="ypMZO8tSSEuYIi13xaaG-87" target="ypMZO8tSSEuYIi13xaaG-8">
          <mxGeometry relative="1" as="geometry" />
        </mxCell>
        <mxCell id="ypMZO8tSSEuYIi13xaaG-87" value="&lt;span style=&quot;font-size: 18px;&quot;&gt;Conv1×1&lt;/span&gt;" style="whiteSpace=wrap;html=1;rounded=0;shadow=1;labelBackgroundColor=none;strokeWidth=1;fontFamily=Verdana;fontSize=8;align=center;spacing=6;" vertex="1" parent="1">
          <mxGeometry x="-190" y="1080.97" width="140" height="40" as="geometry" />
        </mxCell>
        <mxCell id="ypMZO8tSSEuYIi13xaaG-96" value="" style="edgeStyle=orthogonalEdgeStyle;rounded=0;orthogonalLoop=1;jettySize=auto;html=1;" edge="1" parent="1" source="ypMZO8tSSEuYIi13xaaG-88" target="ypMZO8tSSEuYIi13xaaG-92">
          <mxGeometry relative="1" as="geometry">
            <Array as="points">
              <mxPoint x="-300" y="1219.97" />
            </Array>
          </mxGeometry>
        </mxCell>
        <mxCell id="ypMZO8tSSEuYIi13xaaG-88" value="&lt;span style=&quot;font-size: 18px;&quot;&gt;Conv1×1&lt;/span&gt;" style="whiteSpace=wrap;html=1;rounded=0;shadow=1;labelBackgroundColor=none;strokeWidth=1;fontFamily=Verdana;fontSize=8;align=center;spacing=6;" vertex="1" parent="1">
          <mxGeometry x="-370" y="1080.97" width="140" height="40" as="geometry" />
        </mxCell>
        <mxCell id="ypMZO8tSSEuYIi13xaaG-90" value="" style="edgeStyle=orthogonalEdgeStyle;rounded=0;orthogonalLoop=1;jettySize=auto;html=1;" edge="1" parent="1" source="ypMZO8tSSEuYIi13xaaG-89" target="ypMZO8tSSEuYIi13xaaG-88">
          <mxGeometry relative="1" as="geometry" />
        </mxCell>
        <mxCell id="ypMZO8tSSEuYIi13xaaG-91" value="" style="edgeStyle=orthogonalEdgeStyle;rounded=0;orthogonalLoop=1;jettySize=auto;html=1;" edge="1" parent="1" source="ypMZO8tSSEuYIi13xaaG-89" target="ypMZO8tSSEuYIi13xaaG-87">
          <mxGeometry relative="1" as="geometry" />
        </mxCell>
        <mxCell id="ypMZO8tSSEuYIi13xaaG-89" value="&lt;span style=&quot;font-size: 18px;&quot;&gt;Cspd&lt;/span&gt;" style="whiteSpace=wrap;html=1;rounded=0;shadow=1;labelBackgroundColor=none;strokeWidth=1;fontFamily=Verdana;fontSize=8;align=center;spacing=6;strokeColor=none;" vertex="1" parent="1">
          <mxGeometry x="-280" y="998.97" width="140" height="40" as="geometry" />
        </mxCell>
        <mxCell id="ypMZO8tSSEuYIi13xaaG-98" value="" style="edgeStyle=orthogonalEdgeStyle;rounded=0;orthogonalLoop=1;jettySize=auto;html=1;" edge="1" parent="1" source="ypMZO8tSSEuYIi13xaaG-92" target="ypMZO8tSSEuYIi13xaaG-97">
          <mxGeometry relative="1" as="geometry" />
        </mxCell>
        <mxCell id="ypMZO8tSSEuYIi13xaaG-92" value="&lt;font style=&quot;font-size: 18px;&quot;&gt;Concat&lt;/font&gt;" style="whiteSpace=wrap;html=1;rounded=0;shadow=1;labelBackgroundColor=none;strokeWidth=1;fontFamily=Verdana;fontSize=8;align=center;spacing=6;" vertex="1" parent="1">
          <mxGeometry x="-280" y="1200.97" width="140" height="40" as="geometry" />
        </mxCell>
        <mxCell id="ypMZO8tSSEuYIi13xaaG-100" value="" style="edgeStyle=orthogonalEdgeStyle;rounded=0;orthogonalLoop=1;jettySize=auto;html=1;" edge="1" parent="1" source="ypMZO8tSSEuYIi13xaaG-97">
          <mxGeometry relative="1" as="geometry">
            <mxPoint x="-210" y="1319.97" as="targetPoint" />
          </mxGeometry>
        </mxCell>
        <mxCell id="ypMZO8tSSEuYIi13xaaG-97" value="&lt;font style=&quot;font-size: 18px;&quot;&gt;Conv1×1&lt;/font&gt;" style="whiteSpace=wrap;html=1;rounded=0;shadow=1;labelBackgroundColor=none;strokeWidth=1;fontFamily=Verdana;fontSize=8;align=center;spacing=6;" vertex="1" parent="1">
          <mxGeometry x="-280" y="1260.97" width="140" height="40" as="geometry" />
        </mxCell>
        <mxCell id="ypMZO8tSSEuYIi13xaaG-107" value="" style="edgeStyle=orthogonalEdgeStyle;rounded=0;orthogonalLoop=1;jettySize=auto;html=1;" edge="1" parent="1" source="ypMZO8tSSEuYIi13xaaG-102" target="ypMZO8tSSEuYIi13xaaG-103">
          <mxGeometry relative="1" as="geometry" />
        </mxCell>
        <mxCell id="ypMZO8tSSEuYIi13xaaG-102" value="&lt;span style=&quot;font-size: 18px;&quot;&gt;Conv1×5&lt;/span&gt;" style="whiteSpace=wrap;html=1;rounded=0;shadow=1;labelBackgroundColor=none;strokeWidth=1;fontFamily=Verdana;fontSize=8;align=center;spacing=6;" vertex="1" parent="1">
          <mxGeometry x="5" y="1106.97" width="140" height="40" as="geometry" />
        </mxCell>
        <mxCell id="ypMZO8tSSEuYIi13xaaG-108" value="" style="edgeStyle=orthogonalEdgeStyle;rounded=0;orthogonalLoop=1;jettySize=auto;html=1;" edge="1" parent="1" source="ypMZO8tSSEuYIi13xaaG-103" target="ypMZO8tSSEuYIi13xaaG-104">
          <mxGeometry relative="1" as="geometry" />
        </mxCell>
        <mxCell id="ypMZO8tSSEuYIi13xaaG-103" value="&lt;span style=&quot;font-size: 18px;&quot;&gt;Conv5×1&lt;/span&gt;" style="whiteSpace=wrap;html=1;rounded=0;shadow=1;labelBackgroundColor=none;strokeWidth=1;fontFamily=Verdana;fontSize=8;align=center;spacing=6;" vertex="1" parent="1">
          <mxGeometry x="5" y="1165.97" width="140" height="40" as="geometry" />
        </mxCell>
        <mxCell id="ypMZO8tSSEuYIi13xaaG-104" value="&lt;font style=&quot;font-size: 18px;&quot;&gt;Add&lt;/font&gt;" style="whiteSpace=wrap;html=1;rounded=0;shadow=1;labelBackgroundColor=none;strokeWidth=1;fontFamily=Verdana;fontSize=8;align=center;spacing=6;" vertex="1" parent="1">
          <mxGeometry x="5" y="1226.97" width="140" height="40" as="geometry" />
        </mxCell>
        <mxCell id="ypMZO8tSSEuYIi13xaaG-106" value="" style="edgeStyle=orthogonalEdgeStyle;rounded=0;orthogonalLoop=1;jettySize=auto;html=1;" edge="1" parent="1" source="ypMZO8tSSEuYIi13xaaG-105" target="ypMZO8tSSEuYIi13xaaG-102">
          <mxGeometry relative="1" as="geometry" />
        </mxCell>
        <mxCell id="ypMZO8tSSEuYIi13xaaG-110" value="" style="edgeStyle=orthogonalEdgeStyle;rounded=0;orthogonalLoop=1;jettySize=auto;html=1;" edge="1" parent="1" source="ypMZO8tSSEuYIi13xaaG-105" target="ypMZO8tSSEuYIi13xaaG-104">
          <mxGeometry relative="1" as="geometry">
            <Array as="points">
              <mxPoint x="75" y="1095.97" />
              <mxPoint x="-5" y="1095.97" />
              <mxPoint x="-5" y="1245.97" />
            </Array>
          </mxGeometry>
        </mxCell>
        <mxCell id="ypMZO8tSSEuYIi13xaaG-105" value="&lt;span style=&quot;font-size: 18px;&quot;&gt;&amp;nbsp;Asymmetric Residual&lt;/span&gt;" style="whiteSpace=wrap;html=1;rounded=0;shadow=1;labelBackgroundColor=none;strokeWidth=1;fontFamily=Verdana;fontSize=8;align=center;spacing=6;strokeColor=none;" vertex="1" parent="1">
          <mxGeometry x="5" y="1033.97" width="140" height="40" as="geometry" />
        </mxCell>
        <mxCell id="ypMZO8tSSEuYIi13xaaG-111" value="" style="edgeStyle=orthogonalEdgeStyle;rounded=0;orthogonalLoop=1;jettySize=auto;html=1;" edge="1" parent="1">
          <mxGeometry relative="1" as="geometry">
            <mxPoint x="75" y="1266.97" as="sourcePoint" />
            <mxPoint x="75" y="1285.97" as="targetPoint" />
          </mxGeometry>
        </mxCell>
        <mxCell id="ypMZO8tSSEuYIi13xaaG-117" value="" style="edgeStyle=orthogonalEdgeStyle;rounded=0;orthogonalLoop=1;jettySize=auto;html=1;" edge="1" parent="1" source="ypMZO8tSSEuYIi13xaaG-113">
          <mxGeometry relative="1" as="geometry">
            <mxPoint x="260" y="1143.93" as="targetPoint" />
          </mxGeometry>
        </mxCell>
        <mxCell id="ypMZO8tSSEuYIi13xaaG-113" value="&lt;span style=&quot;font-size: 18px;&quot;&gt;Conv4×4&lt;/span&gt;&lt;div&gt;&lt;span style=&quot;font-size: 18px;&quot;&gt;Stride=4&lt;/span&gt;&lt;/div&gt;" style="whiteSpace=wrap;html=1;rounded=0;shadow=1;labelBackgroundColor=none;strokeWidth=1;fontFamily=Verdana;fontSize=8;align=center;spacing=6;" vertex="1" parent="1">
          <mxGeometry x="190" y="1083.93" width="140" height="40" as="geometry" />
        </mxCell>
        <mxCell id="ypMZO8tSSEuYIi13xaaG-115" value="" style="edgeStyle=orthogonalEdgeStyle;rounded=0;orthogonalLoop=1;jettySize=auto;html=1;" edge="1" parent="1" source="ypMZO8tSSEuYIi13xaaG-114" target="ypMZO8tSSEuYIi13xaaG-113">
          <mxGeometry relative="1" as="geometry" />
        </mxCell>
        <mxCell id="ypMZO8tSSEuYIi13xaaG-114" value="&lt;span style=&quot;font-size: 18px;&quot;&gt;One Stem&lt;/span&gt;" style="whiteSpace=wrap;html=1;rounded=0;shadow=1;labelBackgroundColor=none;strokeWidth=1;fontFamily=Verdana;fontSize=8;align=center;spacing=6;strokeColor=none;" vertex="1" parent="1">
          <mxGeometry x="190" y="1023.9300000000001" width="140" height="40" as="geometry" />
        </mxCell>
        <mxCell id="ypMZO8tSSEuYIi13xaaG-119" value="" style="edgeStyle=orthogonalEdgeStyle;rounded=0;orthogonalLoop=1;jettySize=auto;html=1;" edge="1" parent="1" source="ypMZO8tSSEuYIi13xaaG-120">
          <mxGeometry relative="1" as="geometry">
            <mxPoint x="260" y="1294.96" as="targetPoint" />
          </mxGeometry>
        </mxCell>
        <mxCell id="ypMZO8tSSEuYIi13xaaG-120" value="&lt;span style=&quot;font-size: 18px;&quot;&gt;Conv2×2&lt;/span&gt;&lt;div&gt;&lt;span style=&quot;font-size: 18px;&quot;&gt;Stride=4&lt;/span&gt;&lt;/div&gt;" style="whiteSpace=wrap;html=1;rounded=0;shadow=1;labelBackgroundColor=none;strokeWidth=1;fontFamily=Verdana;fontSize=8;align=center;spacing=6;" vertex="1" parent="1">
          <mxGeometry x="190" y="1235.96" width="140" height="40" as="geometry" />
        </mxCell>
        <mxCell id="ypMZO8tSSEuYIi13xaaG-121" value="" style="edgeStyle=orthogonalEdgeStyle;rounded=0;orthogonalLoop=1;jettySize=auto;html=1;" edge="1" parent="1" source="ypMZO8tSSEuYIi13xaaG-122" target="ypMZO8tSSEuYIi13xaaG-120">
          <mxGeometry relative="1" as="geometry" />
        </mxCell>
        <mxCell id="ypMZO8tSSEuYIi13xaaG-122" value="&lt;span style=&quot;font-size: 18px;&quot;&gt;Even Downsample&lt;/span&gt;" style="whiteSpace=wrap;html=1;rounded=0;shadow=1;labelBackgroundColor=none;strokeWidth=1;fontFamily=Verdana;fontSize=8;align=center;spacing=6;strokeColor=none;" vertex="1" parent="1">
          <mxGeometry x="190" y="1174.96" width="140" height="40" as="geometry" />
        </mxCell>
      </root>
    </mxGraphModel>
  </diagram>
</mxfile>
